<?xml version="1.0" encoding="UTF-8" standalone="no"?>
<!DOCTYPE svg PUBLIC "-//W3C//DTD SVG 1.1//EN"
 "http://www.w3.org/Graphics/SVG/1.1/DTD/svg11.dtd">
<!-- Generated by graphviz version 2.40.1 (20161225.0304)
 -->
<!-- Title: controllers_diagram Pages: 1 -->
<svg width="539pt" height="492pt"
 viewBox="0.00 0.00 538.64 492.00" xmlns="http://www.w3.org/2000/svg" xmlns:xlink="http://www.w3.org/1999/xlink">
<g id="graph0" class="graph" transform="scale(1 1) rotate(0) translate(4 488)">
<title>controllers_diagram</title>
<polygon fill="transparent" stroke="transparent" points="-4,4 -4,-488 534.6416,-488 534.6416,4 -4,4"/>
<!-- _diagram_info -->
<g id="node1" class="node">
<title>_diagram_info</title>
<text text-anchor="start" x="331" y="-194.6" font-family="Times,serif" font-size="13.00" fill="#000000">Controllers diagram</text>
<text text-anchor="start" x="331" y="-181.6" font-family="Times,serif" font-size="13.00" fill="#000000">Date: Feb 17 2017 &#45; 20:09</text>
<text text-anchor="start" x="331" y="-168.6" font-family="Times,serif" font-size="13.00" fill="#000000">Migration version: 20170216143159</text>
<text text-anchor="start" x="331" y="-155.6" font-family="Times,serif" font-size="13.00" fill="#000000">Generated by RailRoady 1.5.2</text>
<text text-anchor="start" x="331" y="-142.6" font-family="Times,serif" font-size="13.00" fill="#000000">http://railroady.prestonlee.com</text>
</g>
<!-- Api::V1::DiningExperiencesController -->
<g id="node2" class="node">
<title>Api::V1::DiningExperiencesController</title>
<path fill="none" stroke="#000000" d="M250,-238.5C250,-238.5 460.5107,-238.5 460.5107,-238.5 466.5107,-238.5 472.5107,-244.5 472.5107,-250.5 472.5107,-250.5 472.5107,-344.5 472.5107,-344.5 472.5107,-350.5 466.5107,-356.5 460.5107,-356.5 460.5107,-356.5 250,-356.5 250,-356.5 244,-356.5 238,-350.5 238,-344.5 238,-344.5 238,-250.5 238,-250.5 238,-244.5 244,-238.5 250,-238.5"/>
<text text-anchor="middle" x="355.2554" y="-341.3" font-family="Times,serif" font-size="14.00" fill="#000000">Api::V1::DiningExperiencesController</text>
<polyline fill="none" stroke="#000000" points="238,-334.5 472.5107,-334.5 "/>
<text text-anchor="start" x="246" y="-319.3" font-family="Times,serif" font-size="14.00" fill="#000000">create</text>
<text text-anchor="start" x="246" y="-305.3" font-family="Times,serif" font-size="14.00" fill="#000000">index</text>
<text text-anchor="start" x="246" y="-291.3" font-family="Times,serif" font-size="14.00" fill="#000000">show</text>
<polyline fill="none" stroke="#000000" points="238,-284.5 472.5107,-284.5 "/>
<polyline fill="none" stroke="#000000" points="238,-260.5 472.5107,-260.5 "/>
<text text-anchor="start" x="246" y="-245.3" font-family="Times,serif" font-size="14.00" fill="#000000">dining_experience_params</text>
</g>
<!-- Api::V1::MyDiningExperiencesController -->
<g id="node3" class="node">
<title>Api::V1::MyDiningExperiencesController</title>
<path fill="none" stroke="#000000" d="M46,-119.5C46,-119.5 275.959,-119.5 275.959,-119.5 281.959,-119.5 287.959,-125.5 287.959,-131.5 287.959,-131.5 287.959,-199.5 287.959,-199.5 287.959,-205.5 281.959,-211.5 275.959,-211.5 275.959,-211.5 46,-211.5 46,-211.5 40,-211.5 34,-205.5 34,-199.5 34,-199.5 34,-131.5 34,-131.5 34,-125.5 40,-119.5 46,-119.5"/>
<text text-anchor="middle" x="160.9795" y="-196.3" font-family="Times,serif" font-size="14.00" fill="#000000">Api::V1::MyDiningExperiencesController</text>
<polyline fill="none" stroke="#000000" points="34,-189.5 287.959,-189.5 "/>
<text text-anchor="start" x="42" y="-174.3" font-family="Times,serif" font-size="14.00" fill="#000000">index</text>
<polyline fill="none" stroke="#000000" points="34,-167.5 287.959,-167.5 "/>
<polyline fill="none" stroke="#000000" points="34,-143.5 287.959,-143.5 "/>
</g>
<!-- Api::V1::ReservationsController -->
<g id="node4" class="node">
<title>Api::V1::ReservationsController</title>
<path fill="none" stroke="#000000" d="M335,-17.5C335,-17.5 510.5313,-17.5 510.5313,-17.5 516.5313,-17.5 522.5313,-23.5 522.5313,-29.5 522.5313,-29.5 522.5313,-95.5 522.5313,-95.5 522.5313,-101.5 516.5313,-107.5 510.5313,-107.5 510.5313,-107.5 335,-107.5 335,-107.5 329,-107.5 323,-101.5 323,-95.5 323,-95.5 323,-29.5 323,-29.5 323,-23.5 329,-17.5 335,-17.5"/>
<text text-anchor="middle" x="422.7656" y="-92.3" font-family="Times,serif" font-size="14.00" fill="#000000">Api::V1::ReservationsController</text>
<polyline fill="none" stroke="#000000" points="323,-85.5 522.5313,-85.5 "/>
<text text-anchor="start" x="331" y="-70.3" font-family="Times,serif" font-size="14.00" fill="#000000">create</text>
<polyline fill="none" stroke="#000000" points="323,-63.5 522.5313,-63.5 "/>
<polyline fill="none" stroke="#000000" points="323,-39.5 522.5313,-39.5 "/>
<text text-anchor="start" x="331" y="-24.3" font-family="Times,serif" font-size="14.00" fill="#000000">reservation_params</text>
</g>
<!-- Api::V1::SessionsController -->
<g id="node5" class="node">
<title>Api::V1::SessionsController</title>
<path fill="none" stroke="#000000" d="M12,-.5C12,-.5 163.4482,-.5 163.4482,-.5 169.4482,-.5 175.4482,-6.5 175.4482,-12.5 175.4482,-12.5 175.4482,-80.5 175.4482,-80.5 175.4482,-86.5 169.4482,-92.5 163.4482,-92.5 163.4482,-92.5 12,-92.5 12,-92.5 6,-92.5 0,-86.5 0,-80.5 0,-80.5 0,-12.5 0,-12.5 0,-6.5 6,-.5 12,-.5"/>
<text text-anchor="middle" x="87.7241" y="-77.3" font-family="Times,serif" font-size="14.00" fill="#000000">Api::V1::SessionsController</text>
<polyline fill="none" stroke="#000000" points="0,-70.5 175.4482,-70.5 "/>
<text text-anchor="start" x="8" y="-55.3" font-family="Times,serif" font-size="14.00" fill="#000000">create</text>
<polyline fill="none" stroke="#000000" points="0,-48.5 175.4482,-48.5 "/>
<polyline fill="none" stroke="#000000" points="0,-24.5 175.4482,-24.5 "/>
</g>
<!-- Api::V1::UsersController -->
<g id="node6" class="node">
<title>Api::V1::UsersController</title>
<path fill="none" stroke="#000000" d="M63,-289.5C63,-289.5 198.0967,-289.5 198.0967,-289.5 204.0967,-289.5 210.0967,-295.5 210.0967,-301.5 210.0967,-301.5 210.0967,-409.5 210.0967,-409.5 210.0967,-415.5 204.0967,-421.5 198.0967,-421.5 198.0967,-421.5 63,-421.5 63,-421.5 57,-421.5 51,-415.5 51,-409.5 51,-409.5 51,-301.5 51,-301.5 51,-295.5 57,-289.5 63,-289.5"/>
<text text-anchor="middle" x="130.5483" y="-406.3" font-family="Times,serif" font-size="14.00" fill="#000000">Api::V1::UsersController</text>
<polyline fill="none" stroke="#000000" points="51,-399.5 210.0967,-399.5 "/>
<text text-anchor="start" x="59" y="-384.3" font-family="Times,serif" font-size="14.00" fill="#000000">create</text>
<text text-anchor="start" x="59" y="-370.3" font-family="Times,serif" font-size="14.00" fill="#000000">index</text>
<text text-anchor="start" x="59" y="-356.3" font-family="Times,serif" font-size="14.00" fill="#000000">show</text>
<text text-anchor="start" x="59" y="-342.3" font-family="Times,serif" font-size="14.00" fill="#000000">update</text>
<polyline fill="none" stroke="#000000" points="51,-335.5 210.0967,-335.5 "/>
<polyline fill="none" stroke="#000000" points="51,-311.5 210.0967,-311.5 "/>
<text text-anchor="start" x="59" y="-296.3" font-family="Times,serif" font-size="14.00" fill="#000000">user_params</text>
</g>
<!-- ApplicationController -->
<g id="node7" class="node">
<title>ApplicationController</title>
<path fill="none" stroke="#000000" d="M403,-391.5C403,-391.5 518.6416,-391.5 518.6416,-391.5 524.6416,-391.5 530.6416,-397.5 530.6416,-403.5 530.6416,-403.5 530.6416,-471.5 530.6416,-471.5 530.6416,-477.5 524.6416,-483.5 518.6416,-483.5 518.6416,-483.5 403,-483.5 403,-483.5 397,-483.5 391,-477.5 391,-471.5 391,-471.5 391,-403.5 391,-403.5 391,-397.5 397,-391.5 403,-391.5"/>
<text text-anchor="middle" x="460.8208" y="-468.3" font-family="Times,serif" font-size="14.00" fill="#000000">ApplicationController</text>
<polyline fill="none" stroke="#000000" points="391,-461.5 530.6416,-461.5 "/>
<text text-anchor="start" x="399" y="-446.3" font-family="Times,serif" font-size="14.00" fill="#000000">find_user</text>
<polyline fill="none" stroke="#000000" points="391,-439.5 530.6416,-439.5 "/>
<polyline fill="none" stroke="#000000" points="391,-415.5 530.6416,-415.5 "/>
</g>
</g>
</svg>
