<?xml version="1.0" encoding="UTF-8" standalone="no"?>
<!DOCTYPE svg PUBLIC "-//W3C//DTD SVG 1.1//EN"
 "http://www.w3.org/Graphics/SVG/1.1/DTD/svg11.dtd">
<!-- Generated by graphviz version 2.40.1 (20161225.0304)
 -->
<!-- Title: models_diagram Pages: 1 -->
<svg width="630pt" height="622pt"
 viewBox="0.00 0.00 630.25 622.00" xmlns="http://www.w3.org/2000/svg" xmlns:xlink="http://www.w3.org/1999/xlink">
<g id="graph0" class="graph" transform="scale(1 1) rotate(0) translate(4 618)">
<title>models_diagram</title>
<polygon fill="transparent" stroke="transparent" points="-4,4 -4,-618 626.2542,-618 626.2542,4 -4,4"/>
<!-- _diagram_info -->
<g id="node1" class="node">
<title>_diagram_info</title>
<text text-anchor="start" x="8" y="-564.6" font-family="Times,serif" font-size="13.00" fill="#000000">Models diagram</text>
<text text-anchor="start" x="8" y="-551.6" font-family="Times,serif" font-size="13.00" fill="#000000">Date: Feb 17 2017 &#45; 20:09</text>
<text text-anchor="start" x="8" y="-538.6" font-family="Times,serif" font-size="13.00" fill="#000000">Migration version: 20170216143159</text>
<text text-anchor="start" x="8" y="-525.6" font-family="Times,serif" font-size="13.00" fill="#000000">Generated by RailRoady 1.5.2</text>
<text text-anchor="start" x="8" y="-512.6" font-family="Times,serif" font-size="13.00" fill="#000000">http://railroady.prestonlee.com</text>
</g>
<!-- ApplicationRecord -->
<g id="node2" class="node">
<title>ApplicationRecord</title>
<ellipse fill="none" stroke="#000000" cx="302.6877" cy="-542.5" rx="77.2916" ry="18"/>
<text text-anchor="middle" x="302.6877" y="-538.3" font-family="Times,serif" font-size="14.00" fill="#000000">ApplicationRecord</text>
</g>
<!-- DiningExperience -->
<g id="node3" class="node">
<title>DiningExperience</title>
<path fill="none" stroke="#000000" d="M410.1824,-471.5C410.1824,-471.5 519.1931,-471.5 519.1931,-471.5 525.1931,-471.5 531.1931,-477.5 531.1931,-483.5 531.1931,-483.5 531.1931,-601.5 531.1931,-601.5 531.1931,-607.5 525.1931,-613.5 519.1931,-613.5 519.1931,-613.5 410.1824,-613.5 410.1824,-613.5 404.1824,-613.5 398.1824,-607.5 398.1824,-601.5 398.1824,-601.5 398.1824,-483.5 398.1824,-483.5 398.1824,-477.5 404.1824,-471.5 410.1824,-471.5"/>
<text text-anchor="middle" x="464.6877" y="-598.3" font-family="Times,serif" font-size="14.00" fill="#000000">DiningExperience</text>
<polyline fill="none" stroke="#000000" points="398.1824,-591.5 531.1931,-591.5 "/>
<text text-anchor="start" x="406.1824" y="-576.3" font-family="Times,serif" font-size="14.00" fill="#000000">title :varchar</text>
<text text-anchor="start" x="406.1824" y="-562.3" font-family="Times,serif" font-size="14.00" fill="#000000">description :text</text>
<text text-anchor="start" x="406.1824" y="-548.3" font-family="Times,serif" font-size="14.00" fill="#000000">price :integer</text>
<text text-anchor="start" x="406.1824" y="-534.3" font-family="Times,serif" font-size="14.00" fill="#000000">length :integer</text>
<text text-anchor="start" x="406.1824" y="-520.3" font-family="Times,serif" font-size="14.00" fill="#000000">user_id :integer</text>
<text text-anchor="start" x="406.1824" y="-506.3" font-family="Times,serif" font-size="14.00" fill="#000000">created_at :datetime</text>
<text text-anchor="start" x="406.1824" y="-492.3" font-family="Times,serif" font-size="14.00" fill="#000000">updated_at :datetime</text>
<text text-anchor="start" x="406.1824" y="-478.3" font-family="Times,serif" font-size="14.00" fill="#000000">id :INTEGER</text>
</g>
<!-- Reservation -->
<g id="node4" class="node">
<title>Reservation</title>
<path fill="none" stroke="#000000" d="M320.9133,-.5C320.9133,-.5 480.4622,-.5 480.4622,-.5 486.4622,-.5 492.4622,-6.5 492.4622,-12.5 492.4622,-12.5 492.4622,-116.5 492.4622,-116.5 492.4622,-122.5 486.4622,-128.5 480.4622,-128.5 480.4622,-128.5 320.9133,-128.5 320.9133,-128.5 314.9133,-128.5 308.9133,-122.5 308.9133,-116.5 308.9133,-116.5 308.9133,-12.5 308.9133,-12.5 308.9133,-6.5 314.9133,-.5 320.9133,-.5"/>
<text text-anchor="middle" x="400.6877" y="-113.3" font-family="Times,serif" font-size="14.00" fill="#000000">Reservation</text>
<polyline fill="none" stroke="#000000" points="308.9133,-106.5 492.4622,-106.5 "/>
<text text-anchor="start" x="316.9133" y="-91.3" font-family="Times,serif" font-size="14.00" fill="#000000">date :date</text>
<text text-anchor="start" x="316.9133" y="-77.3" font-family="Times,serif" font-size="14.00" fill="#000000">dining_experience_id :integer</text>
<text text-anchor="start" x="316.9133" y="-63.3" font-family="Times,serif" font-size="14.00" fill="#000000">user_id :integer</text>
<text text-anchor="start" x="316.9133" y="-49.3" font-family="Times,serif" font-size="14.00" fill="#000000">id :INTEGER</text>
<text text-anchor="start" x="316.9133" y="-35.3" font-family="Times,serif" font-size="14.00" fill="#000000">status :varchar</text>
<text text-anchor="start" x="316.9133" y="-21.3" font-family="Times,serif" font-size="14.00" fill="#000000">created_at :datetime</text>
<text text-anchor="start" x="316.9133" y="-7.3" font-family="Times,serif" font-size="14.00" fill="#000000">updated_at :datetime</text>
</g>
<!-- DiningExperience&#45;&gt;Reservation -->
<g id="edge1" class="edge">
<title>DiningExperience&#45;&gt;Reservation</title>
<path fill="none" stroke="#a2b268" d="M421.9908,-463.735C416.1441,-449.8474 411.0145,-435.2632 407.6877,-421 385.3948,-325.4205 388.0295,-211.4943 393.2663,-138.6048"/>
<ellipse fill="none" stroke="#a2b268" cx="423.713" cy="-467.7029" rx="4" ry="4"/>
<polygon fill="#a2b268" stroke="#a2b268" points="393.2688,-138.57 398.5075,-128.9364 393.6445,-133.5842 394.0202,-128.5983 394.0202,-128.5983 394.0202,-128.5983 393.6445,-133.5842 389.5329,-128.2602 393.2688,-138.57 393.2688,-138.57"/>
</g>
<!-- User -->
<g id="node5" class="node">
<title>User</title>
<path fill="none" stroke="#000000" d="M428.4133,-166.5C428.4133,-166.5 566.9622,-166.5 566.9622,-166.5 572.9622,-166.5 578.9622,-172.5 578.9622,-178.5 578.9622,-178.5 578.9622,-408.5 578.9622,-408.5 578.9622,-414.5 572.9622,-420.5 566.9622,-420.5 566.9622,-420.5 428.4133,-420.5 428.4133,-420.5 422.4133,-420.5 416.4133,-414.5 416.4133,-408.5 416.4133,-408.5 416.4133,-178.5 416.4133,-178.5 416.4133,-172.5 422.4133,-166.5 428.4133,-166.5"/>
<text text-anchor="middle" x="497.6877" y="-405.3" font-family="Times,serif" font-size="14.00" fill="#000000">User</text>
<polyline fill="none" stroke="#000000" points="416.4133,-398.5 578.9622,-398.5 "/>
<text text-anchor="start" x="424.4133" y="-383.3" font-family="Times,serif" font-size="14.00" fill="#000000">updated_at :datetime</text>
<text text-anchor="start" x="424.4133" y="-369.3" font-family="Times,serif" font-size="14.00" fill="#000000">first_name :varchar</text>
<text text-anchor="start" x="424.4133" y="-355.3" font-family="Times,serif" font-size="14.00" fill="#000000">last_name :varchar</text>
<text text-anchor="start" x="424.4133" y="-341.3" font-family="Times,serif" font-size="14.00" fill="#000000">phone_number :varchar</text>
<text text-anchor="start" x="424.4133" y="-327.3" font-family="Times,serif" font-size="14.00" fill="#000000">email :varchar</text>
<text text-anchor="start" x="424.4133" y="-313.3" font-family="Times,serif" font-size="14.00" fill="#000000">street1 :varchar</text>
<text text-anchor="start" x="424.4133" y="-299.3" font-family="Times,serif" font-size="14.00" fill="#000000">street2 :varchar</text>
<text text-anchor="start" x="424.4133" y="-285.3" font-family="Times,serif" font-size="14.00" fill="#000000">city :varchar</text>
<text text-anchor="start" x="424.4133" y="-271.3" font-family="Times,serif" font-size="14.00" fill="#000000">state :varchar</text>
<text text-anchor="start" x="424.4133" y="-257.3" font-family="Times,serif" font-size="14.00" fill="#000000">zipcode :varchar</text>
<text text-anchor="start" x="424.4133" y="-243.3" font-family="Times,serif" font-size="14.00" fill="#000000">chef_biography :varchar</text>
<text text-anchor="start" x="424.4133" y="-229.3" font-family="Times,serif" font-size="14.00" fill="#000000">instagram :varchar</text>
<text text-anchor="start" x="424.4133" y="-215.3" font-family="Times,serif" font-size="14.00" fill="#000000">personal_website :varchar</text>
<text text-anchor="start" x="424.4133" y="-201.3" font-family="Times,serif" font-size="14.00" fill="#000000">password_digest :varchar</text>
<text text-anchor="start" x="424.4133" y="-187.3" font-family="Times,serif" font-size="14.00" fill="#000000">created_at :datetime</text>
<text text-anchor="start" x="424.4133" y="-173.3" font-family="Times,serif" font-size="14.00" fill="#000000">id :INTEGER</text>
</g>
<!-- DiningExperience&#45;&gt;User -->
<g id="edge2" class="edge">
<title>DiningExperience&#45;&gt;User</title>
<path fill="none" stroke="#d3bbd3" d="M475.4621,-461.2026C476.7701,-451.3334 478.1328,-441.0506 479.5114,-430.6489"/>
<polygon fill="#d3bbd3" stroke="#d3bbd3" points="475.414,-461.5665 469.6391,-470.8886 474.757,-466.5232 474.1001,-471.4798 474.1001,-471.4798 474.1001,-471.4798 474.757,-466.5232 478.5611,-472.0711 475.414,-461.5665 475.414,-461.5665"/>
<polygon fill="#d3bbd3" stroke="#d3bbd3" points="479.5227,-430.5625 485.2976,-421.2405 480.1797,-425.6059 480.8366,-420.6492 480.8366,-420.6492 480.8366,-420.6492 480.1797,-425.6059 476.3756,-420.058 479.5227,-430.5625 479.5227,-430.5625"/>
</g>
<!-- User&#45;&gt;DiningExperience -->
<g id="edge3" class="edge">
<title>User&#45;&gt;DiningExperience</title>
<path fill="none" stroke="#cf38af" d="M479.7674,-428.7174C478.3016,-439.7769 476.851,-450.7229 475.4621,-461.2026"/>
<ellipse fill="none" stroke="#cf38af" cx="480.3111" cy="-424.6145" rx="4" ry="4"/>
<polygon fill="#cf38af" stroke="#cf38af" points="475.414,-461.5665 469.6391,-470.8886 474.757,-466.5232 474.1001,-471.4798 474.1001,-471.4798 474.1001,-471.4798 474.757,-466.5232 478.5611,-472.0711 475.414,-461.5665 475.414,-461.5665"/>
<text text-anchor="middle" x="549.9709" y="-441.8" font-family="Times,serif" font-size="14.00" fill="#000000">chef_created_experiences</text>
</g>
<!-- User&#45;&gt;Reservation -->
<g id="edge4" class="edge">
<title>User&#45;&gt;Reservation</title>
<path fill="none" stroke="#47fbbf" d="M440.5917,-158.7062C437.6468,-151.7538 434.7455,-144.9045 431.9333,-138.2653"/>
<ellipse fill="none" stroke="#47fbbf" cx="442.2381" cy="-162.5931" rx="4" ry="4"/>
<polygon fill="#47fbbf" stroke="#47fbbf" points="431.7824,-137.9089 432.0256,-126.9457 429.8322,-133.3049 427.882,-128.7009 427.882,-128.7009 427.882,-128.7009 429.8322,-133.3049 423.7384,-130.4561 431.7824,-137.9089 431.7824,-137.9089"/>
</g>
</g>
</svg>
