<?xml version="1.0" encoding="UTF-8" standalone="no"?>
<!DOCTYPE svg PUBLIC "-//W3C//DTD SVG 1.1//EN"
 "http://www.w3.org/Graphics/SVG/1.1/DTD/svg11.dtd">
<!-- Generated by graphviz version 2.40.1 (20161225.0304)
 -->
<!-- Title: models_diagram Pages: 1 -->
<svg width="644pt" height="240pt"
 viewBox="0.00 0.00 644.25 240.00" xmlns="http://www.w3.org/2000/svg" xmlns:xlink="http://www.w3.org/1999/xlink">
<g id="graph0" class="graph" transform="scale(1 1) rotate(0) translate(4 236)">
<title>models_diagram</title>
<polygon fill="transparent" stroke="transparent" points="-4,4 -4,-236 640.2542,-236 640.2542,4 -4,4"/>
<!-- _diagram_info -->
<g id="node1" class="node">
<title>_diagram_info</title>
<text text-anchor="start" x="8" y="-217.6" font-family="Times,serif" font-size="13.00" fill="#000000">Models diagram</text>
<text text-anchor="start" x="8" y="-204.6" font-family="Times,serif" font-size="13.00" fill="#000000">Date: Feb 17 2017 &#45; 20:09</text>
<text text-anchor="start" x="8" y="-191.6" font-family="Times,serif" font-size="13.00" fill="#000000">Migration version: 20170216143159</text>
<text text-anchor="start" x="8" y="-178.6" font-family="Times,serif" font-size="13.00" fill="#000000">Generated by RailRoady 1.5.2</text>
<text text-anchor="start" x="8" y="-165.6" font-family="Times,serif" font-size="13.00" fill="#000000">http://railroady.prestonlee.com</text>
</g>
<!-- ApplicationRecord -->
<g id="node2" class="node">
<title>ApplicationRecord</title>
<ellipse fill="none" stroke="#000000" cx="302.6877" cy="-195.5" rx="77.2916" ry="18"/>
<text text-anchor="middle" x="302.6877" y="-191.3" font-family="Times,serif" font-size="14.00" fill="#000000">ApplicationRecord</text>
</g>
<!-- DiningExperience -->
<g id="node3" class="node">
<title>DiningExperience</title>
<ellipse fill="none" stroke="#000000" cx="472.6877" cy="-195.5" rx="74.3844" ry="18"/>
<text text-anchor="middle" x="472.6877" y="-191.3" font-family="Times,serif" font-size="14.00" fill="#000000">DiningExperience</text>
</g>
<!-- Reservation -->
<g id="node4" class="node">
<title>Reservation</title>
<ellipse fill="none" stroke="#000000" cx="459.6877" cy="-18" rx="52.1934" ry="18"/>
<text text-anchor="middle" x="459.6877" y="-13.8" font-family="Times,serif" font-size="14.00" fill="#000000">Reservation</text>
</g>
<!-- DiningExperience&#45;&gt;Reservation -->
<g id="edge1" class="edge">
<title>DiningExperience&#45;&gt;Reservation</title>
<path fill="none" stroke="#85929d" d="M470.7448,-168.9719C468.3329,-136.04 464.2363,-80.1048 461.7641,-46.35"/>
<ellipse fill="none" stroke="#85929d" cx="471.0533" cy="-173.1836" rx="4" ry="4"/>
<polygon fill="#85929d" stroke="#85929d" points="461.7532,-46.2007 465.5107,-35.8986 461.388,-41.214 461.0227,-36.2274 461.0227,-36.2274 461.0227,-36.2274 461.388,-41.214 456.5347,-36.5561 461.7532,-46.2007 461.7532,-46.2007"/>
</g>
<!-- User -->
<g id="node5" class="node">
<title>User</title>
<ellipse fill="none" stroke="#000000" cx="502.6877" cy="-91" rx="27" ry="18"/>
<text text-anchor="middle" x="502.6877" y="-86.8" font-family="Times,serif" font-size="14.00" fill="#000000">User</text>
</g>
<!-- DiningExperience&#45;&gt;User -->
<g id="edge2" class="edge">
<title>DiningExperience&#45;&gt;User</title>
<path fill="none" stroke="#220ce3" d="M476.9798,-167.5784C479.2707,-155.0141 482.4942,-140.0952 486.6877,-127 487.689,-123.8734 488.8772,-120.6537 490.1472,-117.4857"/>
<polygon fill="#220ce3" stroke="#220ce3" points="476.9706,-167.632 470.8392,-176.7235 476.1223,-172.5595 475.274,-177.487 475.274,-177.487 475.274,-177.487 476.1223,-172.5595 479.7087,-178.2505 476.9706,-167.632 476.9706,-167.632"/>
<polygon fill="#220ce3" stroke="#220ce3" points="490.1534,-117.4712 498.2322,-110.0561 492.1251,-112.8763 494.0969,-108.2815 494.0969,-108.2815 494.0969,-108.2815 492.1251,-112.8763 489.9615,-106.507 490.1534,-117.4712 490.1534,-117.4712"/>
</g>
<!-- User&#45;&gt;DiningExperience -->
<g id="edge3" class="edge">
<title>User&#45;&gt;DiningExperience</title>
<path fill="none" stroke="#76b0c3" d="M495.2041,-117.0682C490.789,-132.4473 485.2024,-151.9072 480.6986,-167.5957"/>
<ellipse fill="none" stroke="#76b0c3" cx="496.4182" cy="-112.8386" rx="4" ry="4"/>
<polygon fill="#76b0c3" stroke="#76b0c3" points="480.6728,-167.6857 473.5881,-176.0557 479.2931,-172.4916 477.9133,-177.2975 477.9133,-177.2975 477.9133,-177.2975 479.2931,-172.4916 482.2386,-178.5392 480.6728,-167.6857 480.6728,-167.6857"/>
<text text-anchor="middle" x="563.9709" y="-129.8" font-family="Times,serif" font-size="14.00" fill="#000000">chef_created_experiences</text>
</g>
<!-- User&#45;&gt;Reservation -->
<g id="edge4" class="edge">
<title>User&#45;&gt;Reservation</title>
<path fill="none" stroke="#3c5d92" d="M488.5456,-66.9912C484.3425,-59.8557 479.7127,-51.9959 475.4153,-44.7003"/>
<ellipse fill="none" stroke="#3c5d92" cx="490.6844" cy="-70.6223" rx="4" ry="4"/>
<polygon fill="#3c5d92" stroke="#3c5d92" points="475.2821,-44.4741 474.0841,-33.5739 472.7444,-40.166 470.2067,-35.8578 470.2067,-35.8578 470.2067,-35.8578 472.7444,-40.166 466.3294,-38.1417 475.2821,-44.4741 475.2821,-44.4741"/>
</g>
</g>
</svg>
